<svg width="116" height="32" fill="none" xmlns="http://www.w3.org/2000/svg"><path d="M51.824 21.758a6.411 6.411 0 0 1-2.363-.427 5.492 5.492 0 0 1-3.114-3.035 6.159 6.159 0 0 1 0-4.597 5.6 5.6 0 0 1 1.247-1.831 5.652 5.652 0 0 1 1.884-1.204 6.41 6.41 0 0 1 2.364-.427 6.3 6.3 0 0 1 2.311.41 4.68 4.68 0 0 1 1.832 1.238l-.768.759a4.252 4.252 0 0 0-1.535-1.03 5.16 5.16 0 0 0-1.814-.313 5.023 5.023 0 0 0-1.893.349 4.567 4.567 0 0 0-2.53 2.477 4.96 4.96 0 0 0 .001 3.741 4.705 4.705 0 0 0 1.012 1.492c.436.427.95.767 1.517.985a5.023 5.023 0 0 0 1.893.349c.62.009 1.23-.105 1.814-.323a4.2 4.2 0 0 0 1.535-1.038l.759.76a4.7 4.7 0 0 1-1.832 1.246 6.178 6.178 0 0 1-2.32.42Zm7.92-.096H58.54v-11.33h1.204v11.33Zm7.204-5.233h-7.335v-1.055h7.335v1.055Zm-.113-6.105h1.177v11.33h-1.186l.009-11.33Zm3.06 11.33 5.181-11.33h1.178l5.18 11.33H80.17l-4.753-10.632h.488l-4.762 10.631h-1.247Zm2.033-3.027.358-.968h6.585l.357.968h-7.3Zm14.496 3.131a7.32 7.32 0 0 1-2.416-.41c-.777-.27-1.37-.628-1.788-1.064l.47-.924c.402.392.934.715 1.614.976.68.262 1.404.402 2.128.393.715 0 1.291-.087 1.736-.27.445-.184.776-.42.985-.724a1.67 1.67 0 0 0 .314-1.003c0-.445-.13-.794-.383-1.064a2.56 2.56 0 0 0-.995-.637 10.603 10.603 0 0 0-1.36-.41 31.19 31.19 0 0 1-1.492-.384 6.392 6.392 0 0 1-1.369-.54 2.84 2.84 0 0 1-1.003-.899c-.253-.375-.384-.863-.384-1.465 0-.55.157-1.082.454-1.544.296-.47.75-.846 1.37-1.134.618-.287 1.403-.427 2.363-.427.636 0 1.282.087 1.892.27a5.558 5.558 0 0 1 1.623.733l-.402.95a5.53 5.53 0 0 0-1.543-.715 5.711 5.711 0 0 0-1.579-.226c-.68 0-1.239.096-1.683.279-.445.183-.768.427-.986.741-.21.305-.323.672-.314 1.047 0 .444.13.802.384 1.064.279.288.628.506 1.003.628.445.157.907.296 1.37.4.496.114.993.245 1.482.385.47.13.924.314 1.36.54.402.21.742.506 1.003.881.253.367.384.846.384 1.44 0 .54-.157 1.072-.453 1.526-.306.47-.76.846-1.387 1.134-.628.314-1.422.453-2.398.453Zm6.829-.096v-11.33h1.203v11.33h-1.203Zm3.68 0v-.828l4.71-4.614c.357-.34.68-.707.968-1.108a2.86 2.86 0 0 0 .549-1.692c0-.663-.226-1.177-.671-1.552-.445-.375-1.108-.567-1.98-.567a4.916 4.916 0 0 0-1.77.305c-.515.2-.969.532-1.317.95l-.829-.714a4.314 4.314 0 0 1 1.7-1.195 5.998 5.998 0 0 1 2.312-.42c.768 0 1.43.123 1.989.367a2.793 2.793 0 0 1 1.761 2.695c0 .367-.052.733-.157 1.082a4.22 4.22 0 0 1-.549 1.125 8.43 8.43 0 0 1-1.16 1.334l-4.317 4.239-.323-.453h7.021v1.037h-7.937v.01Zm8.835-2.983v-.837l6.001-7.51h1.291l-5.957 7.51-.628-.192h9.114v1.038l-9.821-.009Zm6.393 2.983v-2.974l.035-1.038v-2.625h1.134v6.637h-1.169Z" fill="url(#a)"/><path d="m33.212 13.299-16.31 1.073c-.244-2.268-.82-7.667-.82-7.667-.008.096-1.055 9.795-1.02 9.472l1.02.114 13.284.872c-.777 7.684-8.268 13.449-16.11 12.036C4.353 27.759-.993 18.06 2.312 9.67 4.526 3.923 9.88.277 16.013.016 9.838-.281 3.846 3.618 1.378 9.287c-4.17 9.193 1.535 20.19 11.408 22.301C23.993 34.1 34.328 24.707 33.212 13.3Z" fill="#1D7D4D"/><defs><linearGradient id="a" x1="45.902" y1="15.995" x2="115.59" y2="15.995" gradientUnits="userSpaceOnUse"><stop stop-color="#0B3F29"/><stop offset=".804" stop-color="#1D7D4D"/></linearGradient></defs></svg>